<?xml version="1.0" encoding="UTF-8"?>
<svg version="1.1" xmlns="http://www.w3.org/2000/svg" width="250" height="70">
<path d="M0 0 C1.42119141 -0.01836914 1.42119141 -0.01836914 2.87109375 -0.03710938 C9.26850874 -0.05023677 15.15692282 0.68860541 21.375 2.1875 C21.5751243 6.13379725 21.71899039 10.07807241 21.81445312 14.02832031 C21.87373314 16.01993758 21.97547384 18.01014669 22.078125 20 C22.24540733 28.28047553 21.23428556 32.96138727 15.59570312 39.14111328 C10.50720902 43.83018074 7.53520275 46.33432807 0.5625 46.4375 C-0.47519531 46.46328125 -1.51289063 46.4890625 -2.58203125 46.515625 C-7.86515506 45.94594284 -10.89498569 43.24966291 -14.25 39.3125 C-14.81976563 38.65507813 -15.38953125 37.99765625 -15.9765625 37.3203125 C-19.54282452 32.7061441 -21.0021796 29.71579847 -20.91796875 23.79296875 C-20.90830078 22.59091797 -20.89863281 21.38886719 -20.88867188 20.15039062 C-20.86353516 18.90451172 -20.83839844 17.65863281 -20.8125 16.375 C-20.79896484 15.10978516 -20.78542969 13.84457031 -20.77148438 12.54101562 C-20.73618318 9.42274357 -20.68686819 6.30533958 -20.625 3.1875 C-13.38233373 0.71840922 -7.62967226 0.00506618 0 0 Z M-7.625 5.1875 C-9.36313388 5.61413286 -11.11488665 5.98826859 -12.875 6.3125 C-14.21304687 6.56386719 -14.21304687 6.56386719 -15.578125 6.8203125 C-16.25359375 6.94148438 -16.9290625 7.06265625 -17.625 7.1875 C-18.13240908 16.71551503 -17.25580055 24.33742367 -13.625 33.1875 C-12.92375 32.465625 -12.2225 31.74375 -11.5 31 C-8.69729255 28.18926187 -5.70237208 25.69233774 -2.625 23.1875 C-6.16113714 18.39974044 -9.76983704 13.72298584 -13.625 9.1875 C-9.995 9.1875 -6.365 9.1875 -2.625 9.1875 C-2.955 10.5075 -3.285 11.8275 -3.625 13.1875 C-1.27073501 15.95872275 -1.27073501 15.95872275 1.375 18.1875 C3.66879749 14.74680376 4.375 13.46459699 4.375 9.1875 C7.675 9.1875 10.975 9.1875 14.375 9.1875 C14.375 10.1775 14.375 11.1675 14.375 12.1875 C13.78203125 12.44273438 13.1890625 12.69796875 12.578125 12.9609375 C10.16275462 14.30566498 8.86288294 15.67964367 7.125 17.8125 C6.60421875 18.44414062 6.0834375 19.07578125 5.546875 19.7265625 C5.16015625 20.20867188 4.7734375 20.69078125 4.375 21.1875 C6.22485967 25.12701596 8.45065341 27.97071875 11.375 31.1875 C12.035 31.1875 12.695 31.1875 13.375 31.1875 C13.705 31.8475 14.035 32.5075 14.375 33.1875 C17.73405786 27.76617874 17.90799582 23.00149609 18.0625 16.8125 C18.09666016 15.88566406 18.13082031 14.95882813 18.16601562 14.00390625 C18.24799552 11.73189188 18.31730494 9.46023896 18.375 7.1875 C17.7550415 7.05617676 17.13508301 6.92485352 16.49633789 6.78955078 C15.68414795 6.61407715 14.87195801 6.43860352 14.03515625 6.2578125 C13.22957275 6.08523926 12.42398926 5.91266602 11.59399414 5.73486328 C9.375 5.1875 9.375 5.1875 6.8125 4.0625 C1.69848928 2.22670128 -2.8295797 2.75830022 -7.625 5.1875 Z M0.375 26.1875 C-2.53671789 29.85730204 -2.53671789 29.85730204 -3.625 34.1875 C-6.265 34.1875 -8.905 34.1875 -11.625 34.1875 C-8.75470361 38.16175655 -5.99923634 40.9128971 -1.625 43.1875 C1.66142465 43.05884188 1.66142465 43.05884188 4.375 42.1875 C4.375 41.5275 4.375 40.8675 4.375 40.1875 C5.1175 39.94 5.86 39.6925 6.625 39.4375 C9.57624062 38.09602699 11.22314974 36.57844474 13.375 34.1875 C8.92 34.6825 8.92 34.6825 4.375 35.1875 C4.271875 34.259375 4.16875 33.33125 4.0625 32.375 C3.3679808 29.15495642 2.89759061 28.16170135 0.375 26.1875 Z " fill="#E7BE19" transform="translate(24.625,11.8125)"/>
<path d="M0 0 C25.41 0 50.82 0 77 0 C77 0.99 77 1.98 77 3 C51.59 3 26.18 3 0 3 C0 2.01 0 1.02 0 0 Z " fill="#D7B92C" transform="translate(56,49)"/>
<path d="M0 0 C23.43 0 46.86 0 71 0 C71 0.99 71 1.98 71 3 C47.57 3 24.14 3 0 3 C0 2.01 0 1.02 0 0 Z " fill="#CBA610" transform="translate(175,49)"/>
<path d="M0 0 C1.89492188 0.01353516 1.89492188 0.01353516 3.828125 0.02734375 C4.79234375 0.03894531 5.7565625 0.05054688 6.75 0.0625 C6.75 1.0525 6.75 2.0425 6.75 3.0625 C5.78900391 3.24425781 5.78900391 3.24425781 4.80859375 3.4296875 C0.78062035 4.21006983 -3.19786981 4.98968251 -7.125 6.1875 C-10.25 7.0625 -10.25 7.0625 -14.25 7.0625 C-13.92 8.0525 -13.59 9.0425 -13.25 10.0625 C-13.20542848 11.8119323 -13.21090362 13.56293678 -13.25 15.3125 C-13.29659514 19.69826717 -13.01671383 23.7497347 -12.25 28.0625 C-13.9 27.7325 -15.55 27.4025 -17.25 27.0625 C-17.25 19.1425 -17.25 11.2225 -17.25 3.0625 C-10.82901201 0.92217067 -6.73026119 -0.06231723 0 0 Z " fill="#DEAF0D" transform="translate(21.25,11.9375)"/>
<path d="M0 0 C1.98 0 3.96 0 6 0 C6.33 0.66 6.66 1.32 7 2 C7.66 2 8.32 2 9 2 C9.33 1.34 9.66 0.68 10 0 C11.98 0 13.96 0 16 0 C15.29875 1.051875 14.5975 2.10375 13.875 3.1875 C12.10173051 6.19488107 12.10173051 6.19488107 12.625 9.625 C13.305625 10.800625 13.305625 10.800625 14 12 C14.66666667 13.66666667 15.33333333 15.33333333 16 17 C13.625 17.1875 13.625 17.1875 11 17 C10.34 16.01 9.68 15.02 9 14 C8.34 14 7.68 14 7 14 C6.01 15.485 6.01 15.485 5 17 C2.375 17.1875 2.375 17.1875 0 17 C2 12 2 12 3.375 9.625 C4.12150102 6.4896957 3.67503796 5.90006643 2.125 3.1875 C1.42375 2.135625 0.7225 1.08375 0 0 Z " fill="#CBA10C" transform="translate(230,19)"/>
<path d="M0 0 C2.875 0.25 2.875 0.25 6 1 C7.375 3.0625 7.375 3.0625 8 5 C9.65 4.67 11.3 4.34 13 4 C12 7 12 7 10 8 C11.66215268 9.33895632 13.32963607 10.67130142 15 12 C15.66 12.5775 16.32 13.155 17 13.75 C19.48299515 15.30187197 21.12484151 15.23959654 24 15 C24 15.66 24 16.32 24 17 C25.65 16.67 27.3 16.34 29 16 C29 16.66 29 17.32 29 18 C26.32344199 19.33827901 24.17565948 19.20578556 21.1875 19.25 C20.14980469 19.27578125 19.11210937 19.3015625 18.04296875 19.328125 C11.7137526 18.64564213 8.47366548 14.6168795 4.58203125 9.99609375 C-0 4.21481481 -0 4.21481481 0 0 Z " fill="#E9C21E" transform="translate(4,39)"/>
<path d="M0 0 C4.29 0 8.58 0 13 0 C13 0.99 13 1.98 13 3 C10.03 3 7.06 3 4 3 C4 4.32 4 5.64 4 7 C6.97 7 9.94 7 13 7 C13 7.99 13 8.98 13 10 C10.03 10 7.06 10 4 10 C4 11.32 4 12.64 4 14 C7.3 14 10.6 14 14 14 C14 14.99 14 15.98 14 17 C9.38 17 4.76 17 0 17 C0 11.39 0 5.78 0 0 Z " fill="#D5B526" transform="translate(104,19)"/>
<path d="M0 0 C1.9375 1.0625 1.9375 1.0625 3 3 C3.36528977 6.4093712 3.6140629 8.88023824 1.9375 11.9375 C-1.11976176 13.6140629 -3.5906288 13.36528977 -7 13 C-8.9375 11.9375 -8.9375 11.9375 -10 10 C-10.36528977 6.5906288 -10.6140629 4.11976176 -8.9375 1.0625 C-5.88023824 -0.6140629 -3.4093712 -0.36528977 0 0 Z M-4 3 C-4.66 3.66 -5.32 4.32 -6 5 C-5.83333333 7.08333333 -5.83333333 7.08333333 -5 9 C-4.34 9.33 -3.68 9.66 -3 10 C-2.34 9.67 -1.68 9.34 -1 9 C-1 7.35 -1 5.7 -1 4 C-1.99 3.67 -2.98 3.34 -4 3 Z " fill="#DCBD34" transform="translate(142,23)"/>
<path d="M0 0 C1.9375 1.0625 1.9375 1.0625 3 3 C3.36528977 6.4093712 3.6140629 8.88023824 1.9375 11.9375 C-1.11976176 13.6140629 -3.5906288 13.36528977 -7 13 C-8.9375 11.9375 -8.9375 11.9375 -10 10 C-10.36528977 6.5906288 -10.6140629 4.11976176 -8.9375 1.0625 C-5.88023824 -0.6140629 -3.4093712 -0.36528977 0 0 Z M-4 3 C-4.66 3.66 -5.32 4.32 -6 5 C-5.83333333 7.08333333 -5.83333333 7.08333333 -5 9 C-4.34 9.33 -3.68 9.66 -3 10 C-2.34 9.67 -1.68 9.34 -1 9 C-1 7.35 -1 5.7 -1 4 C-1.99 3.67 -2.98 3.34 -4 3 Z " fill="#D7B11D" transform="translate(192,23)"/>
<path d="M0 0 C1.32 0 2.64 0 4 0 C4.33 2.97 4.66 5.94 5 9 C5.66 8.67 6.32 8.34 7 8 C7.46523063 6.10466658 7.46523063 6.10466658 7.625 3.9375 C7.74875 2.638125 7.8725 1.33875 8 0 C9.32 0 10.64 0 12 0 C12 4.29 12 8.58 12 13 C3.50390625 13.09765625 3.50390625 13.09765625 1 13 C0 12 0 12 -0.09765625 9.27734375 C-0.08605469 8.17519531 -0.07445312 7.07304687 -0.0625 5.9375 C-0.05347656 4.83277344 -0.04445312 3.72804688 -0.03515625 2.58984375 C-0.02355469 1.73519531 -0.01195312 0.88054688 0 0 Z " fill="#D9B92C" transform="translate(154,23)"/>
<path d="M0 0 C8.49609375 -0.09765625 8.49609375 -0.09765625 11 0 C12 1 12 1 12.09765625 3.72265625 C12.08605469 4.82480469 12.07445312 5.92695313 12.0625 7.0625 C12.05347656 8.16722656 12.04445312 9.27195312 12.03515625 10.41015625 C12.02355469 11.26480469 12.01195312 12.11945312 12 13 C10.68 13 9.36 13 8 13 C7.67 10.03 7.34 7.06 7 4 C6.01 4.495 6.01 4.495 5 5 C4.53476937 6.89533342 4.53476937 6.89533342 4.375 9.0625 C4.189375 11.0115625 4.189375 11.0115625 4 13 C2.68 13 1.36 13 0 13 C0 8.71 0 4.42 0 0 Z " fill="#D0AB18" transform="translate(197,23)"/>
<path d="M0 0 C3.5 0.5625 3.5 0.5625 5.4375 2.9375 C6.5 5.5625 6.5 5.5625 6.5 7.5625 C3.86 7.8925 1.22 8.2225 -1.5 8.5625 C0.96278801 9.793894 2.7795055 9.63409196 5.5 9.5625 C4.84 10.8825 4.18 12.2025 3.5 13.5625 C-2.8782235 13.92353152 -2.8782235 13.92353152 -5.4375 12.4375 C-7.01108304 9.66058875 -6.88420899 7.70020673 -6.5 4.5625 C-4.87446903 0.92896018 -3.97916523 0.6395087 0 0 Z M-0.5 3.5625 C-1.16 4.2225 -1.82 4.8825 -2.5 5.5625 C-1.18 5.2325 0.14 4.9025 1.5 4.5625 C0.84 4.2325 0.18 3.9025 -0.5 3.5625 Z " fill="#D6B41D" transform="translate(89.5,22.4375)"/>
<path d="M0 0 C2 2 2 2 2 5 C-0.97 4.67 -3.94 4.34 -7 4 C-7 6.31 -7 8.62 -7 11 C-2.545 10.505 -2.545 10.505 2 10 C1 14 1 14 0 15 C-7.33508049 15.473231 -7.33508049 15.473231 -9.734375 13.765625 C-11.3302275 11.53931225 -11.4022032 10.2203199 -11.375 7.5 C-11.38273438 6.7265625 -11.39046875 5.953125 -11.3984375 5.15625 C-10.22412781 -1.19883774 -5.24442149 -0.41622393 0 0 Z " fill="#D7B82D" transform="translate(171,43)"/>
<path d="M0 0 C1.134375 0.020625 2.26875 0.04125 3.4375 0.0625 C5.4375 3.8125 5.4375 3.8125 5.4375 6.0625 C5.64375 6.8875 5.85 7.7125 6.0625 8.5625 C6.18625 9.3875 6.31 10.2125 6.4375 11.0625 C4.4375 13.0625 4.4375 13.0625 0.5 13.4375 C-3.25566081 13.36933919 -3.25566081 13.36933919 -5.5625 11.0625 C-5.8925 10.4025 -6.2225 9.7425 -6.5625 9.0625 C-4.9125 9.0625 -3.2625 9.0625 -1.5625 9.0625 C-2.2225 8.7325 -2.8825 8.4025 -3.5625 8.0625 C-4.2225 7.4025 -4.8825 6.7425 -5.5625 6.0625 C-4.83351201 0.08479846 -4.83351201 0.08479846 0 0 Z M-1.5625 2.0625 C-1.5625 2.7225 -1.5625 3.3825 -1.5625 4.0625 C-0.5725 3.7325 0.4175 3.4025 1.4375 3.0625 C0.4475 2.7325 -0.5425 2.4025 -1.5625 2.0625 Z " fill="#CEAA11" transform="translate(216.5625,22.9375)"/>
<path d="M0 0 C1.41702513 0.14230808 2.8336096 0.28900746 4.25 0.4375 C5.43335938 0.55931641 5.43335938 0.55931641 6.640625 0.68359375 C8.8244892 0.97646296 10.86801841 1.45789357 13 2 C13.66 2 14.32 2 15 2 C12.83747232 6.68371848 9.96337524 10.6707648 6 14 C2.0625 14.5 2.0625 14.5 -1 14 C-0.63594751 11.29561004 -0.31857318 10.25593617 1.84765625 8.515625 C2.57855469 8.09796875 3.30945312 7.6803125 4.0625 7.25 C4.79597656 6.82203125 5.52945313 6.3940625 6.28515625 5.953125 C6.85105469 5.63859375 7.41695312 5.3240625 8 5 C5.36 5 2.72 5 0 5 C0 3.35 0 1.7 0 0 Z " fill="#DEB30C" transform="translate(29,42)"/>
<path d="M0 0 C2.375 0.25 2.375 0.25 5 1 C6.3125 3.0625 6.3125 3.0625 7 5 C7.66 3.35 8.32 1.7 9 0 C10.65 0 12.3 0 14 0 C12.35 4.29 10.7 8.58 9 13 C7.35 12.67 5.7 12.34 4 12 C2.63671875 9.78515625 2.63671875 9.78515625 1.6875 7.0625 C1.36136719 6.16660156 1.03523438 5.27070313 0.69921875 4.34765625 C0 2 0 2 0 0 Z " fill="#DABC32" transform="translate(118,23)"/>
<path d="M0 0 C1.32 0 2.64 0 4 0 C4 4.62 4 9.24 4 14 C6.97 14 9.94 14 13 14 C13 14.99 13 15.98 13 17 C8.71 17 4.42 17 0 17 C0 11.39 0 5.78 0 0 Z " fill="#D3AF1A" transform="translate(55,19)"/>
<path d="M0 0 C4.05676492 -0.04954711 8.11341194 -0.085789 12.17041016 -0.10986328 C13.54967315 -0.11990253 14.92891496 -0.13353677 16.30810547 -0.15087891 C18.2938514 -0.17521754 20.2797545 -0.18543255 22.265625 -0.1953125 C24.05661621 -0.21102295 24.05661621 -0.21102295 25.88378906 -0.22705078 C28.85798164 -0.01034762 30.50318379 0.43813878 33 2 C32 3 32 3 28.94897461 3.11352539 C27.60008729 3.11336634 26.25119386 3.10767612 24.90234375 3.09765625 C23.83905602 3.09553383 23.83905602 3.09553383 22.75428772 3.09336853 C20.48198288 3.08775443 18.20977525 3.07519963 15.9375 3.0625 C14.40039204 3.05748681 12.86328255 3.05292359 11.32617188 3.04882812 C7.55074358 3.03778042 3.77538829 3.02050641 0 3 C0 2.01 0 1.02 0 0 Z " fill="#D1AF12" transform="translate(175,49)"/>
<path d="M0 0 C3.1875 -0.3125 3.1875 -0.3125 6 0 C6 0.66 6 1.32 6 2 C5.01 2 4.02 2 3 2 C3 2.99 3 3.98 3 5 C3.66 5 4.32 5 5 5 C5 5.66 5 6.32 5 7 C4.34 7 3.68 7 3 7 C3 10.3 3 13.6 3 17 C1.35 17 -0.3 17 -2 17 C-2.25060425 15.10688117 -2.47460633 13.21022961 -2.6875 11.3125 C-2.81511719 10.25675781 -2.94273438 9.20101563 -3.07421875 8.11328125 C-2.98763453 4.48130099 -2.27191758 2.80891628 0 0 Z " fill="#D7B41F" transform="translate(78,19)"/>
<path d="M0 0 C0 1.32 0 2.64 0 4 C0.99 4 1.98 4 3 4 C3 4.99 3 5.98 3 7 C2.01 7 1.02 7 0 7 C0.33 8.98 0.66 10.96 1 13 C1.66 13 2.32 13 3 13 C3 14.32 3 15.64 3 17 C1.00045254 17.04254356 -1.00041636 17.04080783 -3 17 C-4.79003458 15.20996542 -4.5032918 12.61640096 -4.75 10.1875 C-4.86859375 9.12917969 -4.9871875 8.07085937 -5.109375 6.98046875 C-4.97802333 3.40113582 -4.08648207 0 0 0 Z " fill="#D1AE19" transform="translate(172,19)"/>
<path d="M0 0 C1.32 0 2.64 0 4 0 C4 3.96 4 7.92 4 12 C6.64 12 9.28 12 12 12 C12 12.99 12 13.98 12 15 C8.04 15 4.08 15 0 15 C0 10.05 0 5.1 0 0 Z " fill="#D6B627" transform="translate(135,43)"/>
<path d="M0 0 C3.63 0 7.26 0 11 0 C11.33 1.65 11.66 3.3 12 5 C12.33 5.99 12.66 6.98 13 8 C12.34 8 11.68 8 11 8 C10.34 9.32 9.68 10.64 9 12 C7.49405319 10.38050958 5.99539332 8.75424026 4.5 7.125 C3.6646875 6.22007813 2.829375 5.31515625 1.96875 4.3828125 C0 2 0 2 0 0 Z " fill="#E3BA15" transform="translate(11,21)"/>
<path d="M0 0 C1.32 0 2.64 0 4 0 C4 3.96 4 7.92 4 12 C6.31 12 8.62 12 11 12 C11 12.99 11 13.98 11 15 C7.37 15 3.74 15 0 15 C0 10.05 0 5.1 0 0 Z " fill="#D5B41E" transform="translate(148,43)"/>
<path d="M0 0 C2.875 0.25 2.875 0.25 6 1 C7.375 3.0625 7.375 3.0625 8 5 C9.65 4.67 11.3 4.34 13 4 C12 7 12 7 10 8 C10 8.99 10 9.98 10 11 C6.95281822 10.66142425 5.2252397 10.16892978 2.75 8.3125 C0.64738963 5.53405058 0.31204221 3.43246436 0 0 Z " fill="#E5BF44" transform="translate(4,39)"/>
<path d="M0 0 C0.99 0.33 1.98 0.66 3 1 C3.33 1.99 3.66 2.98 4 4 C2.625 6.5 2.625 6.5 1 9 C0.67 9.99 0.34 10.98 0 12 C-1.65 11.67 -3.3 11.34 -5 11 C-4.67 10.01 -4.34 9.02 -4 8 C-5.32 8.33 -6.64 8.66 -8 9 C-3.64309032 1.99782372 -3.64309032 1.99782372 0 0 Z " fill="#E4BD20" transform="translate(21,35)"/>
<path d="M0 0 C1.32 0 2.64 0 4 0 C4 5.61 4 11.22 4 17 C2.68 17 1.36 17 0 17 C0 11.39 0 5.78 0 0 Z " fill="#D9BA2D" transform="translate(147,19)"/>
<path d="M0 0 C2 1 2 1 3.0625 4 C4.19129923 8.27521598 4.62119911 12.60391604 5 17 C3.35 16.67 1.7 16.34 0 16 C0 10.72 0 5.44 0 0 Z " fill="#DDB11A" transform="translate(4,23)"/>
<path d="M0 0 C1.32 0 2.64 0 4 0 C4 4.29 4 8.58 4 13 C2.68 13 1.36 13 0 13 C0 8.71 0 4.42 0 0 Z " fill="#D7B41F" transform="translate(70,23)"/>
<path d="M0 0 C1.32 0 2.64 0 4 0 C4 4.29 4 8.58 4 13 C2.68 13 1.36 13 0 13 C0 8.71 0 4.42 0 0 Z " fill="#D6B31F" transform="translate(176,23)"/>
<path d="M0 0 C1.27230469 0.00902344 2.54460937 0.01804688 3.85546875 0.02734375 C5.31919922 0.04474609 5.31919922 0.04474609 6.8125 0.0625 C6.8125 1.0525 6.8125 2.0425 6.8125 3.0625 C1.2025 3.0625 -4.4075 3.0625 -10.1875 3.0625 C-10.1875 2.4025 -10.1875 1.7425 -10.1875 1.0625 C-6.62704823 -0.12431726 -3.74941663 -0.03439832 0 0 Z " fill="#CEA718" transform="translate(239.1875,48.9375)"/>
<path d="M0 0 C1.32 0.33 2.64 0.66 4 1 C4 4.96 4 8.92 4 13 C2.68 13 1.36 13 0 13 C0 8.66666667 0 4.33333333 0 0 Z " fill="#D4AE12" transform="translate(205,23)"/>
<path d="M0 0 C1.32 0 2.64 0 4 0 C4.05395478 1.62463842 4.09277195 3.24978541 4.125 4.875 C4.14820313 5.77992187 4.17140625 6.68484375 4.1953125 7.6171875 C4 10 4 10 2 12 C1.34 12 0.68 12 0 12 C0 8.04 0 4.08 0 0 Z " fill="#DBB921" transform="translate(55,19)"/>
<path d="M0 0 C1.98 0 3.96 0 6 0 C8.09350689 3.4019487 8.17942163 6.05272412 8 10 C6.68 10.33 5.36 10.66 4 11 C3.896875 10.113125 3.79375 9.22625 3.6875 8.3125 C2.98809298 4.9426298 1.91257489 2.82728462 0 0 Z " fill="#D6B51C" transform="translate(230,19)"/>
<path d="M0 0 C4.62 0 9.24 0 14 0 C14 0.99 14 1.98 14 3 C9.38 3 4.76 3 0 3 C0 2.01 0 1.02 0 0 Z " fill="#D8BB25" transform="translate(175,49)"/>
<path d="M0 0 C4.62 0 9.24 0 14 0 C14 0.99 14 1.98 14 3 C9.38 3 4.76 3 0 3 C0 2.01 0 1.02 0 0 Z " fill="#D6B522" transform="translate(56,49)"/>
<path d="M0 0 C3 1 3 1 4 3 C4.1875 6.5 4.1875 6.5 4 10 C3.34 10.66 2.68 11.32 2 12 C1.67 11.34 1.34 10.68 1 10 C1.33 9.34 1.66 8.68 2 8 C1.34 8 0.68 8 0 8 C0 6.68 0 5.36 0 4 C-1.32 3.34 -2.64 2.68 -4 2 C-3.34 1.67 -2.68 1.34 -2 1 C-1.34 1.33 -0.68 1.66 0 2 C0 1.34 0 0.68 0 0 Z " fill="#D1B425" transform="translate(141,23)"/>
<path d="M0 0 C0 0.99 0 1.98 0 3 C-4.62 3 -9.24 3 -14 3 C-14 2.34 -14 1.68 -14 1 C-9.32798795 -0.20568053 -4.78503708 -0.09382426 0 0 Z " fill="#D9BA2C" transform="translate(118,33)"/>
<path d="M0 0 C2.64 0 5.28 0 8 0 C8 2 8 4 8 6 C7.01 6.33 6.02 6.66 5 7 C3.29115995 5.37660195 1.62553283 3.70680947 0 2 C0 1.34 0 0.68 0 0 Z " fill="#DDAE0E" transform="translate(11,21)"/>
<path d="M0 0 C0.99 0 1.98 0 3 0 C3 0.66 3 1.32 3 2 C3.66 1.67 4.32 1.34 5 1 C6.99960012 0.960008 9.00047242 0.95653201 11 1 C11 1.99 11 2.98 11 4 C7.37 4 3.74 4 0 4 C0 2.68 0 1.36 0 0 Z " fill="#CDAD19" transform="translate(148,54)"/>
<path d="M0 0 C3.375 -0.125 3.375 -0.125 7 0 C9 2 9 2 9 5 C6.36 4.67 3.72 4.34 1 4 C0.67 2.68 0.34 1.36 0 0 Z " fill="#D9BD4A" transform="translate(164,43)"/>
<path d="M0 0 C2.64 0 5.28 0 8 0 C8.66 1.32 9.32 2.64 10 4 C9.01 4 8.02 4 7 4 C6.01 4.495 6.01 4.495 5 5 C4.67 5.99 4.34 6.98 4 8 C3.34 7.67 2.68 7.34 2 7 C2 6.01 2 5.02 2 4 C2.66 4 3.32 4 4 4 C4 3.34 4 2.68 4 2 C2.68 1.34 1.36 0.68 0 0 Z " fill="#C99F0A" transform="translate(197,23)"/>
<path d="M0 0 C0.89203125 0.00902344 1.7840625 0.01804688 2.703125 0.02734375 C3.37859375 0.03894531 4.0540625 0.05054688 4.75 0.0625 C3.76 0.3925 2.77 0.7225 1.75 1.0625 C1.75 1.7225 1.75 2.3825 1.75 3.0625 C-1.88 3.0625 -5.51 3.0625 -9.25 3.0625 C-9.25 2.4025 -9.25 1.7425 -9.25 1.0625 C-6.09493858 0.12630187 -3.28413498 -0.0432123 0 0 Z " fill="#D4B016" transform="translate(227.25,48.9375)"/>
<path d="M0 0 C1.32 0 2.64 0 4 0 C4 2.31 4 4.62 4 7 C2.35 7.66 0.7 8.32 -1 9 C-0.67 6.03 -0.34 3.06 0 0 Z " fill="#D1B321" transform="translate(162,23)"/>
<path d="M0 0 C1.98 0 3.96 0 6 0 C3.525 4.455 3.525 4.455 1 9 C0.34 9 -0.32 9 -1 9 C-1.125 2.25 -1.125 2.25 0 0 Z " fill="#D4B219" transform="translate(240,19)"/>
<path d="M0 0 C3.3 0 6.6 0 10 0 C10 0.99 10 1.98 10 3 C6.78767875 4.07077375 4.36062193 4 1 4 C0.67 2.68 0.34 1.36 0 0 Z " fill="#E3BC15" transform="translate(29,21)"/>
<path d="M0 0 C-1 3 -1 3 -3 4 C-3 4.99 -3 5.98 -3 7 C-4.65 6.67 -6.3 6.34 -8 6 C-8 5.01 -8 4.02 -8 3 C-2.25 0 -2.25 0 0 0 Z " fill="#EFD041" transform="translate(17,43)"/>
<path d="M0 0 C0.99 0 1.98 0 3 0 C3 0.99 3 1.98 3 3 C5.97 3.495 5.97 3.495 9 4 C9 4.66 9 5.32 9 6 C6.36 6 3.72 6 1 6 C0.34 4.35 -0.32 2.7 -1 1 C-0.67 0.67 -0.34 0.34 0 0 Z " fill="#EBC51C" transform="translate(27,37)"/>
<path d="M0 0 C0.66 0 1.32 0 2 0 C2 0.66 2 1.32 2 2 C3.65 2 5.3 2 7 2 C7 3.32 7 4.64 7 6 C5.00045254 6.04254356 2.99958364 6.04080783 1 6 C0 5 0 5 -0.0625 2.4375 C-0.041875 1.633125 -0.02125 0.82875 0 0 Z " fill="#D8B52C" transform="translate(168,30)"/>
<path d="M0 0 C2.64 0 5.28 0 8 0 C8 0.66 8 1.32 8 2 C7.34 2 6.68 2 6 2 C5.67 2.99 5.34 3.98 5 5 C2.525 4.01 2.525 4.01 0 3 C0 2.01 0 1.02 0 0 Z " fill="#E9BF1D" transform="translate(28,12)"/>
<path d="M0 0 C4.54805635 -0.17835515 7.8794254 0.00214565 12 2 C12 2.33 12 2.66 12 3 C8.04 3 4.08 3 0 3 C0 2.01 0 1.02 0 0 Z " fill="#DEC13E" transform="translate(70,49)"/>
<path d="M0 0 C-0.66 1.32 -1.32 2.64 -2 4 C-4.31 4 -6.62 4 -9 4 C-9 3.01 -9 2.02 -9 1 C-5.92677456 0.08941469 -3.19902639 -0.08886184 0 0 Z " fill="#DCBE3F" transform="translate(95,32)"/>
<path d="M0 0 C1.32 0.33 2.64 0.66 4 1 C3.67 3.31 3.34 5.62 3 8 C2.01 8 1.02 8 0 8 C0 5.36 0 2.72 0 0 Z " fill="#E1B814" transform="translate(42,28)"/>
<path d="M0 0 C0.99 0 1.98 0 3 0 C3 0.66 3 1.32 3 2 C4.32 1.67 5.64 1.34 7 1 C6.67 2.98 6.34 4.96 6 7 C3.53199953 5.84826645 1.95216435 4.95216435 0 3 C0 2.01 0 1.02 0 0 Z " fill="#D8B00F" transform="translate(21,31)"/>
<path d="M0 0 C2.97 0 5.94 0 9 0 C9 0.99 9 1.98 9 3 C6.36 3 3.72 3 1 3 C0.67 2.01 0.34 1.02 0 0 Z " fill="#DCBA2A" transform="translate(108,26)"/>
<path d="M0 0 C0.99 0 1.98 0 3 0 C3 2.31 3 4.62 3 7 C1.68 6.67 0.36 6.34 -1 6 C-1.042721 4.33388095 -1.04063832 2.66617115 -1 1 C-0.67 0.67 -0.34 0.34 0 0 Z " fill="#ECC620" transform="translate(43,22)"/>
<path d="M0 0 C0 2.31 0 4.62 0 7 C-0.99 7.33 -1.98 7.66 -3 8 C-3.33 5.69 -3.66 3.38 -4 1 C-2 0 -2 0 0 0 Z " fill="#EDCB2E" transform="translate(22,39)"/>
<path d="M0 0 C0.99 0 1.98 0 3 0 C3 0.66 3 1.32 3 2 C4.32 2.66 5.64 3.32 7 4 C6.67 4.66 6.34 5.32 6 6 C4.35 5.67 2.7 5.34 1 5 C0.67 3.35 0.34 1.7 0 0 Z " fill="#E1C53D" transform="translate(121,30)"/>
<path d="M0 0 C2.475 0.495 2.475 0.495 5 1 C5.33 2.65 5.66 4.3 6 6 C4.125 5.8125 4.125 5.8125 2 5 C0.75 2.4375 0.75 2.4375 0 0 Z " fill="#D3B321" transform="translate(118,23)"/>
<path d="M0 0 C0.33 0.99 0.66 1.98 1 3 C0.34 3.66 -0.32 4.32 -1 5 C-2.32 5 -3.64 5 -5 5 C-5 3.68 -5 2.36 -5 1 C-3 0 -3 0 0 0 Z " fill="#E7B913" transform="translate(39,48)"/>
<path d="M0 0 C1.75 1.3125 1.75 1.3125 3 3 C3 3.66 3 4.32 3 5 C1.35 5 -0.3 5 -2 5 C-2.66 3.68 -3.32 2.36 -4 1 C-2.1875 0.3125 -2.1875 0.3125 0 0 Z " fill="#C49905" transform="translate(243,31)"/>
<path d="M0 0 C0.99 0.495 0.99 0.495 2 1 C2.73075648 3.3140622 3.40138258 5.64828869 4 8 C2.68 8.33 1.36 8.66 0 9 C0 6.03 0 3.06 0 0 Z " fill="#E3B412" transform="translate(4,23)"/>
<path d="M0 0 C1.4540625 0.0309375 1.4540625 0.0309375 2.9375 0.0625 C2.9375 0.7225 2.9375 1.3825 2.9375 2.0625 C0.9575 2.3925 -1.0225 2.7225 -3.0625 3.0625 C-3.0625 3.7225 -3.0625 4.3825 -3.0625 5.0625 C-3.7225 5.0625 -4.3825 5.0625 -5.0625 5.0625 C-3.9375 0.08035714 -3.9375 0.08035714 0 0 Z " fill="#D7BA23" transform="translate(81.0625,18.9375)"/>
<path d="M0 0 C3.125 -0.1875 3.125 -0.1875 6 0 C6 0.99 6 1.98 6 3 C3.36 3 0.72 3 -2 3 C-1.34 2.01 -0.68 1.02 0 0 Z " fill="#C69D1C" transform="translate(240,49)"/>
<path d="M0 0 C2 3 2 3 2 7 C0.68 7 -0.64 7 -2 7 C-2 5.35 -2 3.7 -2 2 C-1.34 2 -0.68 2 0 2 C0 1.34 0 0.68 0 0 Z " fill="#DBB825" transform="translate(207,29)"/>
<path d="M0 0 C1.32 0 2.64 0 4 0 C4 1.65 4 3.3 4 5 C2.68 5.33 1.36 5.66 0 6 C0 4.02 0 2.04 0 0 Z " fill="#D1B016" transform="translate(55,19)"/>
<path d="M0 0 C2.64 0 5.28 0 8 0 C7.01 1.485 7.01 1.485 6 3 C2.875 3.1875 2.875 3.1875 0 3 C0 2.01 0 1.02 0 0 Z " fill="#D8BC1E" transform="translate(88,49)"/>
<path d="M0 0 C2.64 0.99 5.28 1.98 8 3 C7.01 3.33 6.02 3.66 5 4 C4.34 3.67 3.68 3.34 3 3 C3 3.66 3 4.32 3 5 C2.34 5 1.68 5 1 5 C0.34 3.68 -0.32 2.36 -1 1 C-0.67 0.67 -0.34 0.34 0 0 Z " fill="#D7B319" transform="translate(214,26)"/>
<path d="M0 0 C-0.99 0.495 -0.99 0.495 -2 1 C-2 1.66 -2 2.32 -2 3 C-4.97 3 -7.94 3 -11 3 C-11 2.34 -11 1.68 -11 1 C-7.27569643 0.30710631 -3.78916254 -0.11144596 0 0 Z " fill="#EEC21F" transform="translate(46,14)"/>
<path d="M0 0 C1.32 0 2.64 0 4 0 C3.625 1.9375 3.625 1.9375 3 4 C2.01 4.495 2.01 4.495 1 5 C0.34 4.67 -0.32 4.34 -1 4 C-0.67 2.68 -0.34 1.36 0 0 Z " fill="#D4B513" transform="translate(169,53)"/>
<path d="M0 0 C2.64 0.33 5.28 0.66 8 1 C7.67 1.66 7.34 2.32 7 3 C4.69 3 2.38 3 0 3 C0 2.01 0 1.02 0 0 Z " fill="#DAB41B" transform="translate(200,49)"/>
<path d="M0 0 C0.99 0.33 1.98 0.66 3 1 C3.33 1.99 3.66 2.98 4 4 C3.01 4.99 2.02 5.98 1 7 C1 6.01 1 5.02 1 4 C0.34 4 -0.32 4 -1 4 C-0.67 2.68 -0.34 1.36 0 0 Z " fill="#ECC521" transform="translate(21,35)"/>
<path d="M0 0 C1.65 0 3.3 0 5 0 C5.33 1.32 5.66 2.64 6 4 C4.35 3.67 2.7 3.34 1 3 C0.67 2.01 0.34 1.02 0 0 Z " fill="#CBA511" transform="translate(183,32)"/>
<path d="M0 0 C0.66 0 1.32 0 2 0 C2 2.97 2 5.94 2 9 C1.01 8.34 0.02 7.68 -1 7 C-1.25 3.9375 -1.25 3.9375 -1 1 C-0.67 0.67 -0.34 0.34 0 0 Z " fill="#CDAA12" transform="translate(238,22)"/>
<path d="M0 0 C1.32 0.33 2.64 0.66 4 1 C4 2.32 4 3.64 4 5 C2.68 5 1.36 5 0 5 C0 3.35 0 1.7 0 0 Z " fill="#CBA912" transform="translate(104,23)"/>
<path d="M0 0 C0.33 0.66 0.66 1.32 1 2 C1.99 2 2.98 2 4 2 C4.33 3.65 4.66 5.3 5 7 C4.34 7 3.68 7 3 7 C3 6.34 3 5.68 3 5 C2.01 5 1.02 5 0 5 C0 3.35 0 1.7 0 0 Z " fill="#DCBA2F" transform="translate(148,49)"/>
<path d="M0 0 C0.33 1.32 0.66 2.64 1 4 C-0.32 4.99 -1.64 5.98 -3 7 C-3.1875 4.625 -3.1875 4.625 -3 2 C-2.01 1.34 -1.02 0.68 0 0 Z " fill="#CBA914" transform="translate(58,29)"/>
<path d="M0 0 C2.97 0.495 2.97 0.495 6 1 C5.34 2.32 4.68 3.64 4 5 C3.34 5 2.68 5 2 5 C2 4.34 2 3.68 2 3 C1.34 3 0.68 3 0 3 C0 2.01 0 1.02 0 0 Z " fill="#C8A30D" transform="translate(217,29)"/>
<path d="M0 0 C1.98 0 3.96 0 6 0 C6 0.66 6 1.32 6 2 C5.01 2 4.02 2 3 2 C2.67 2.99 2.34 3.98 2 5 C1.34 4.67 0.68 4.34 0 4 C0 2.68 0 1.36 0 0 Z " fill="#D9BD2D" transform="translate(135,23)"/>
<path d="M0 0 C1.32 0 2.64 0 4 0 C4 0.99 4 1.98 4 3 C2.68 3 1.36 3 0 3 C0 2.01 0 1.02 0 0 Z " fill="#DDC233" transform="translate(176,19)"/>
<path d="M0 0 C1.32 0 2.64 0 4 0 C4 0.99 4 1.98 4 3 C2.68 3 1.36 3 0 3 C0 2.01 0 1.02 0 0 Z " fill="#DABD27" transform="translate(70,19)"/>
</svg>
